<mxfile host="app.diagrams.net" modified="2020-11-03T10:32:45.523Z" agent="5.0 (Windows NT 10.0; Win64; x64) AppleWebKit/537.36 (KHTML, like Gecko) Chrome/86.0.4240.111 Safari/537.36 Edg/86.0.622.56" etag="_8sPsenNVaoERnxHFwHS" version="13.8.8" type="github">
  <diagram id="ggzki0A2Y46brBBrVkt2" name="Page-1">
    <mxGraphModel dx="1422" dy="1910" grid="1" gridSize="10" guides="1" tooltips="1" connect="1" arrows="1" fold="1" page="1" pageScale="1" pageWidth="827" pageHeight="1169" math="0" shadow="0">
      <root>
        <mxCell id="0" />
        <mxCell id="1" parent="0" />
        <mxCell id="Wlh2mmNMWatoqyfH4WrL-3" value="" style="edgeStyle=orthogonalEdgeStyle;rounded=0;orthogonalLoop=1;jettySize=auto;html=1;" edge="1" parent="1" source="Wlh2mmNMWatoqyfH4WrL-1" target="Wlh2mmNMWatoqyfH4WrL-2">
          <mxGeometry relative="1" as="geometry" />
        </mxCell>
        <mxCell id="Wlh2mmNMWatoqyfH4WrL-5" style="edgeStyle=orthogonalEdgeStyle;rounded=0;orthogonalLoop=1;jettySize=auto;html=1;entryX=0.5;entryY=0;entryDx=0;entryDy=0;" edge="1" parent="1" source="Wlh2mmNMWatoqyfH4WrL-1" target="Wlh2mmNMWatoqyfH4WrL-4">
          <mxGeometry relative="1" as="geometry" />
        </mxCell>
        <mxCell id="Wlh2mmNMWatoqyfH4WrL-8" style="edgeStyle=orthogonalEdgeStyle;rounded=0;orthogonalLoop=1;jettySize=auto;html=1;exitX=1;exitY=0.5;exitDx=0;exitDy=0;entryX=0;entryY=0.5;entryDx=0;entryDy=0;" edge="1" parent="1" source="Wlh2mmNMWatoqyfH4WrL-1" target="Wlh2mmNMWatoqyfH4WrL-7">
          <mxGeometry relative="1" as="geometry" />
        </mxCell>
        <mxCell id="Wlh2mmNMWatoqyfH4WrL-20" style="edgeStyle=orthogonalEdgeStyle;rounded=0;orthogonalLoop=1;jettySize=auto;html=1;entryX=0.5;entryY=0;entryDx=0;entryDy=0;" edge="1" parent="1" source="Wlh2mmNMWatoqyfH4WrL-1" target="Wlh2mmNMWatoqyfH4WrL-22">
          <mxGeometry relative="1" as="geometry">
            <mxPoint x="160" y="480" as="targetPoint" />
          </mxGeometry>
        </mxCell>
        <mxCell id="Wlh2mmNMWatoqyfH4WrL-1" value="组件" style="rounded=0;whiteSpace=wrap;html=1;" vertex="1" parent="1">
          <mxGeometry x="120" y="330" width="80" height="50" as="geometry" />
        </mxCell>
        <mxCell id="Wlh2mmNMWatoqyfH4WrL-2" value="属性" style="shape=parallelogram;perimeter=parallelogramPerimeter;whiteSpace=wrap;html=1;fixedSize=1;rounded=0;" vertex="1" parent="1">
          <mxGeometry x="220" y="270" width="120" height="20" as="geometry" />
        </mxCell>
        <mxCell id="Wlh2mmNMWatoqyfH4WrL-4" value="方法" style="shape=parallelogram;perimeter=parallelogramPerimeter;whiteSpace=wrap;html=1;fixedSize=1;rounded=0;" vertex="1" parent="1">
          <mxGeometry x="220" y="420" width="120" height="20" as="geometry" />
        </mxCell>
        <mxCell id="Wlh2mmNMWatoqyfH4WrL-7" value="生命周期钩子" style="shape=parallelogram;perimeter=parallelogramPerimeter;whiteSpace=wrap;html=1;fixedSize=1;rounded=0;" vertex="1" parent="1">
          <mxGeometry x="355" y="345" width="120" height="20" as="geometry" />
        </mxCell>
        <mxCell id="Wlh2mmNMWatoqyfH4WrL-11" style="edgeStyle=orthogonalEdgeStyle;rounded=0;orthogonalLoop=1;jettySize=auto;html=1;entryX=0.5;entryY=0;entryDx=0;entryDy=0;" edge="1" parent="1" source="Wlh2mmNMWatoqyfH4WrL-10" target="Wlh2mmNMWatoqyfH4WrL-1">
          <mxGeometry relative="1" as="geometry" />
        </mxCell>
        <mxCell id="Wlh2mmNMWatoqyfH4WrL-16" style="edgeStyle=orthogonalEdgeStyle;rounded=0;orthogonalLoop=1;jettySize=auto;html=1;exitX=0.5;exitY=1;exitDx=0;exitDy=0;" edge="1" parent="1" source="Wlh2mmNMWatoqyfH4WrL-4" target="Wlh2mmNMWatoqyfH4WrL-17">
          <mxGeometry relative="1" as="geometry">
            <mxPoint x="660" y="70" as="targetPoint" />
          </mxGeometry>
        </mxCell>
        <mxCell id="Wlh2mmNMWatoqyfH4WrL-10" value="数据" style="rounded=1;whiteSpace=wrap;html=1;" vertex="1" parent="1">
          <mxGeometry x="290" y="40" width="110" height="60" as="geometry" />
        </mxCell>
        <mxCell id="Wlh2mmNMWatoqyfH4WrL-15" style="edgeStyle=orthogonalEdgeStyle;rounded=0;orthogonalLoop=1;jettySize=auto;html=1;entryX=0.75;entryY=0;entryDx=0;entryDy=0;" edge="1" parent="1" target="Wlh2mmNMWatoqyfH4WrL-4">
          <mxGeometry relative="1" as="geometry">
            <mxPoint x="640" y="160" as="sourcePoint" />
          </mxGeometry>
        </mxCell>
        <mxCell id="Wlh2mmNMWatoqyfH4WrL-18" style="edgeStyle=orthogonalEdgeStyle;rounded=0;orthogonalLoop=1;jettySize=auto;html=1;entryX=1;entryY=0.75;entryDx=0;entryDy=0;" edge="1" parent="1" source="Wlh2mmNMWatoqyfH4WrL-17" target="Wlh2mmNMWatoqyfH4WrL-10">
          <mxGeometry relative="1" as="geometry">
            <mxPoint x="333" y="470" as="targetPoint" />
          </mxGeometry>
        </mxCell>
        <mxCell id="Wlh2mmNMWatoqyfH4WrL-17" value="API" style="rounded=0;whiteSpace=wrap;html=1;" vertex="1" parent="1">
          <mxGeometry x="650" y="325" width="120" height="60" as="geometry" />
        </mxCell>
        <mxCell id="Wlh2mmNMWatoqyfH4WrL-29" style="edgeStyle=orthogonalEdgeStyle;rounded=0;orthogonalLoop=1;jettySize=auto;html=1;entryX=0.425;entryY=1;entryDx=0;entryDy=0;entryPerimeter=0;" edge="1" parent="1" source="Wlh2mmNMWatoqyfH4WrL-22" target="Wlh2mmNMWatoqyfH4WrL-4">
          <mxGeometry relative="1" as="geometry" />
        </mxCell>
        <mxCell id="Wlh2mmNMWatoqyfH4WrL-22" value="自有数据" style="rounded=0;whiteSpace=wrap;html=1;" vertex="1" parent="1">
          <mxGeometry x="120" y="460" width="80" height="30" as="geometry" />
        </mxCell>
        <mxCell id="Wlh2mmNMWatoqyfH4WrL-24" value="" style="shape=flexArrow;endArrow=classic;html=1;endWidth=16;endSize=5.67;" edge="1" parent="1">
          <mxGeometry width="50" height="50" relative="1" as="geometry">
            <mxPoint x="640" y="80" as="sourcePoint" />
            <mxPoint x="640" y="270" as="targetPoint" />
          </mxGeometry>
        </mxCell>
        <mxCell id="Wlh2mmNMWatoqyfH4WrL-25" value="时间线" style="edgeLabel;html=1;align=center;verticalAlign=middle;resizable=0;points=[];" vertex="1" connectable="0" parent="Wlh2mmNMWatoqyfH4WrL-24">
          <mxGeometry x="-0.1474" y="-3" relative="1" as="geometry">
            <mxPoint as="offset" />
          </mxGeometry>
        </mxCell>
        <mxCell id="Wlh2mmNMWatoqyfH4WrL-28" value="总体async" style="ellipse;shape=cloud;whiteSpace=wrap;html=1;" vertex="1" parent="1">
          <mxGeometry x="630" y="70" width="120" height="80" as="geometry" />
        </mxCell>
        <mxCell id="Wlh2mmNMWatoqyfH4WrL-31" style="edgeStyle=orthogonalEdgeStyle;rounded=0;orthogonalLoop=1;jettySize=auto;html=1;entryX=0.5;entryY=0;entryDx=0;entryDy=0;" edge="1" parent="1" source="Wlh2mmNMWatoqyfH4WrL-30" target="Wlh2mmNMWatoqyfH4WrL-2">
          <mxGeometry relative="1" as="geometry" />
        </mxCell>
        <mxCell id="Wlh2mmNMWatoqyfH4WrL-33" style="edgeStyle=orthogonalEdgeStyle;rounded=0;orthogonalLoop=1;jettySize=auto;html=1;entryX=0.5;entryY=0;entryDx=0;entryDy=0;" edge="1" parent="1" source="Wlh2mmNMWatoqyfH4WrL-30" target="Wlh2mmNMWatoqyfH4WrL-10">
          <mxGeometry relative="1" as="geometry" />
        </mxCell>
        <mxCell id="Wlh2mmNMWatoqyfH4WrL-34" style="edgeStyle=orthogonalEdgeStyle;rounded=0;orthogonalLoop=1;jettySize=auto;html=1;entryX=0.575;entryY=-0.017;entryDx=0;entryDy=0;entryPerimeter=0;" edge="1" parent="1" source="Wlh2mmNMWatoqyfH4WrL-30" target="Wlh2mmNMWatoqyfH4WrL-17">
          <mxGeometry relative="1" as="geometry" />
        </mxCell>
        <mxCell id="Wlh2mmNMWatoqyfH4WrL-30" value="配置数据" style="rounded=1;whiteSpace=wrap;html=1;" vertex="1" parent="1">
          <mxGeometry x="430" y="-100" width="100" height="60" as="geometry" />
        </mxCell>
        <mxCell id="Wlh2mmNMWatoqyfH4WrL-36" style="edgeStyle=orthogonalEdgeStyle;rounded=0;orthogonalLoop=1;jettySize=auto;html=1;entryX=1;entryY=0.5;entryDx=0;entryDy=0;" edge="1" parent="1" source="Wlh2mmNMWatoqyfH4WrL-35" target="Wlh2mmNMWatoqyfH4WrL-17">
          <mxGeometry relative="1" as="geometry" />
        </mxCell>
        <mxCell id="Wlh2mmNMWatoqyfH4WrL-35" value="后台" style="shape=cylinder3;whiteSpace=wrap;html=1;boundedLbl=1;backgroundOutline=1;size=15;" vertex="1" parent="1">
          <mxGeometry x="770" y="180" width="60" height="80" as="geometry" />
        </mxCell>
        <mxCell id="Wlh2mmNMWatoqyfH4WrL-39" style="edgeStyle=orthogonalEdgeStyle;rounded=0;orthogonalLoop=1;jettySize=auto;html=1;" edge="1" parent="1" source="Wlh2mmNMWatoqyfH4WrL-38" target="Wlh2mmNMWatoqyfH4WrL-40">
          <mxGeometry relative="1" as="geometry">
            <mxPoint x="120" y="-230" as="targetPoint" />
          </mxGeometry>
        </mxCell>
        <mxCell id="Wlh2mmNMWatoqyfH4WrL-38" value="应用初始化" style="rounded=0;whiteSpace=wrap;html=1;" vertex="1" parent="1">
          <mxGeometry x="60" y="-350" width="120" height="60" as="geometry" />
        </mxCell>
        <mxCell id="Wlh2mmNMWatoqyfH4WrL-40" value="路由初始化" style="rounded=0;whiteSpace=wrap;html=1;" vertex="1" parent="1">
          <mxGeometry x="60" y="-250" width="120" height="60" as="geometry" />
        </mxCell>
      </root>
    </mxGraphModel>
  </diagram>
</mxfile>
